<?xml version="1.0" encoding="iso-8859-1"?>
<!-- Generator: Adobe Illustrator 19.0.0, SVG Export Plug-In . SVG Version: 6.00 Build 0)  -->
<svg version="1.1" id="Layer_1" xmlns="http://www.w3.org/2000/svg" xmlns:xlink="http://www.w3.org/1999/xlink" x="0px" y="0px"
	 viewBox="0 0 512.002 512.002" style="enable-background:new 0 0 512.002 512.002;" xml:space="preserve">
<g>
	<circle style="fill:#4F3E3E;" cx="443.56" cy="428.965" r="36.244"/>
	<path style="fill:#4F3E3E;" d="M450.232,382.881c-0.611-57.986-78.031-190.858-205.74-190.858l-124.2,66.393
		c-53.204,87.031,17.668,155.934,17.668,155.934c-107.666,69.493,1.912,138.987,110.955,2.344L450.232,382.881z"/>
	
		<ellipse transform="matrix(0.9319 -0.3628 0.3628 0.9319 -6.6161 97.1016)" style="fill:#4F3E3E;" cx="255.228" cy="66.166" rx="107.291" ry="45.255"/>
</g>
<path style="opacity:0.1;enable-background:new    ;" d="M244.492,192.024l-124.2,66.393c-6.879,11.253-11.67,22.199-14.822,32.737
	c11.177,2.07,22.578,3.176,33.841,3.176c0.002,0,0.003,0,0.006,0c33.325,0,63.932-9.098,88.511-26.31
	c24.457-17.128,42.279-41.957,52.199-72.458C268.665,193.273,256.816,192.024,244.492,192.024z"/>
<g>
	<path style="fill:#695352;" d="M406.244,58.794c-9.302-23.895-62.772-25.386-119.428-3.33
		c-20.737,8.072-39.021,18.181-53.421,28.925C158.377,23.903,32.202,135.973,32.202,194.961
		c2.488,67.156,189.24,112.755,218.568-24.043v-13.386c20.262-0.644,44.681-5.785,69.732-15.536
		C377.158,119.94,415.546,82.689,406.244,58.794z"/>
	<path style="fill:#695352;" d="M450.232,382.881c0-57.154-46.332-103.485-103.485-103.485
		c-57.154,0-103.485,46.331-103.485,103.485c0,23.207,7.64,44.63,20.54,61.892c-56.484,33.456-4.675,85.743,89.156,41.402
		C407.22,482.963,450.232,437.949,450.232,382.881z"/>
</g>
<circle cx="128.197" cy="157.734" r="14.923"/>
<path d="M285.217,308.255c1.794,0,3.604-0.554,5.156-1.703c6.826-5.056,14.288-9.168,22.179-12.222
	c4.468-1.729,6.687-6.753,4.958-11.22c-1.729-4.466-6.752-6.688-11.219-4.958c-9.339,3.614-18.167,8.479-26.242,14.458
	c-3.85,2.851-4.658,8.283-1.808,12.133C279.941,307.041,282.562,308.255,285.217,308.255z"/>
<path d="M106.749,264.823c-22.111,43.5-15.628,81.93-5.644,107.284c7.272,18.465,17.205,32.468,23.811,40.548
	c-28.237,20.332-42.5,42.71-39.39,62.289c3.178,20.005,23.811,28.704,42.019,28.704c14.63,0,31.384-4.481,48.642-13.157
	c23.685-11.907,47.62-31.438,69.835-56.885c1.188,2.257,2.452,4.468,3.811,6.614c-0.716,1.299-1.166,2.698-1.328,4.112
	c-6.889,5.624-13.093,13.167-15.706,22.103c-3.942,13.482,2.26,27.955,14.257,35.147c12.485,7.485,26.798,10.421,41.273,10.421
	c16.504-0.001,34.665-3.851,54.325-11.544c2.892-1.132,4.684-3.769,8.017-4.064c24.93-2.216,49.711-12.861,69.085-29.453
	c7.1,4.446,15.335,6.849,23.806,6.849c24.765,0,44.912-20.147,44.912-44.911c0-19.54-12.44-36.429-30.423-42.509
	c0.34-41.491-18.887-83.96-58.757-129.757c-30.138-34.62-67.8-57.568-112.248-68.463c-10.194-2.499-20.021-3.896-30.446-4.958
	c0.423,0.043,2.626-10.13,2.765-11.225c0.062-0.489,0.042-6.349,0.079-6.351c19.945-1.697,42.405-7.14,64.205-15.626
	c28.455-11.078,53.493-26.267,70.5-42.769c18.859-18.299,26.024-36.647,20.18-51.662c-5.808-14.921-23.311-23.575-49.305-24.402
	c-0.278-2.469-0.844-4.865-1.739-7.164C357.261,8.52,338.675,0,310.95,0c-22.367,0-49.105,5.614-75.291,15.808
	c-28.985,11.284-54.664,27.235-71.081,44.052c-4.975,0.851-10.038,2.034-15.181,3.559c-28.225,8.366-57.324,26.443-81.934,50.902
	c-3.398,3.377-3.414,8.869-0.038,12.267c3.378,3.398,8.869,3.415,12.267,0.038c22.281-22.144,49.484-39.121,74.634-46.574
	c9.338-2.767,19.098-4.452,28.853-4.452c14.829,0,28.188,3.962,39.803,11.786c0.076,0.051,0.151,0.103,0.228,0.155
	c2.313,1.587,4.555,3.929,7.31,4.867c2.673,0.909,5.725,0.556,8.019-1.13c0.014-0.01,0.029-0.016,0.043-0.027
	c5.609-4.132,11.427-7.976,17.44-11.496c10.392-6.08,21.861-11.597,33.941-16.3c0.083-0.032,0.167-0.062,0.249-0.095
	c23.374-9.072,48.589-15.591,73.835-14.885c18.3,0.51,31.054,5.51,34.115,13.372c3.061,7.863-2.955,20.169-16.094,32.919
	c-15.382,14.927-38.364,28.795-64.713,39.054c-23.131,9.004-46.877,14.314-66.86,14.95c-4.68,0.148-8.398,3.986-8.398,8.669v12.454
	c-6.605,29.893-21.477,52.033-44.214,65.811c-19.355,11.729-44.511,16.923-70.844,14.625C81.394,246.345,42,220.894,40.876,194.707
	c0.057-11.559,6.159-26.658,17.198-42.544c2.733-3.933,1.76-9.339-2.173-12.071c-3.932-2.734-9.339-1.761-12.073,2.173
	c-13.28,19.111-20.3,37.303-20.3,52.605c0,0.108,0.002,0.214,0.006,0.32C24.823,229.984,64.205,255.925,106.749,264.823z
	 M347.259,31.712c-1.103,0.096-2.214,0.207-3.33,0.326c-0.09,0.01-0.18,0.02-0.271,0.03c-37,4.173-73.405,17.446-104.607,37.759
	c-0.043,0.028-0.082,0.056-0.125,0.083c-1.849,1.196-3.665,2.408-5.436,3.636c-12.159-8.408-26.39-13.471-41.089-14.878
	c13.644-10.098,30.792-19.393,49.549-26.695c24.23-9.432,48.733-14.626,68.999-14.626c19.494,0,33.014,4.835,36.167,12.935
	c0.177,0.456,0.324,0.922,0.438,1.401C347.458,31.691,347.358,31.704,347.259,31.712z M454.18,415.061
	c1.026-3.429,1.884-6.907,2.58-10.403c8.667,4.701,14.364,13.854,14.364,24.218c0,15.199-12.365,27.564-27.565,27.564
	c-3.63,0-7.191-0.717-10.494-2.079c6.702-8.083,12.218-17.044,16.407-26.585C451.317,423.657,452.883,419.399,454.18,415.061z
	 M124.944,267.556c0.195,0.019,0.391,0.039,0.586,0.056c4.462,0.39,8.987,0.592,13.548,0.592
	c43.246-0.001,89.524-18.222,111.41-68.043c3.268-6.306,48.822,8.744,52.834,10.212c23.185,8.481,44.484,21.516,65.101,39.843
	c0.069,0.061,0.139,0.121,0.21,0.18c6.561,5.468,11.926,10.832,17.394,17.394c0.04,0.049,0.081,0.096,0.123,0.145
	c37.617,43.19,55.456,82.491,54.538,120.15c-0.001,0.071-0.002,0.141-0.002,0.212c0,23.301-11.031,45.257-27.574,61.279
	c-17.158,16.618-40.35,27.364-63.674,29.512c-5.504,0.154-10.148,3.02-13.966,5.55c-30.088,11.616-55.501,13.135-75.558,4.514
	c-7.052-3.038-12.804-9.849-10.465-17.847c1.808-6.183,7.39-11.956,13.274-15.945c16.408,13.458,41.434,23.532,42.604,23.998
	c4.399,1.756,9.523-0.464,11.27-4.843c1.775-4.449-0.393-9.495-4.843-11.27c-7.869-3.139-30.564-13.614-41.587-24.473
	c-0.101-0.12-0.198-0.253-0.301-0.369c-7.252-8.164-11.306-17.316-14.361-27.434c-6.925-22.931-4.71-49.546,7.251-72.203
	c2.237-4.236,0.615-9.483-3.62-11.72c-4.235-2.237-9.483-0.615-11.72,3.62c-9.83,18.62-14.417,40.508-12.915,61.633
	c0.571,8.024,1.978,15.773,4.161,23.154c-30.443,36.633-74.783,71.051-109.981,71.046c-4.177,0-8.232-0.486-12.113-1.509
	c-5.656-1.493-12.661-4.919-13.908-12.766c-1.731-10.896,7.869-29.931,40.006-50.674c2.216-1.431,3.655-3.796,3.919-6.42
	c0.266-2.623-0.682-5.231-2.565-7.075c-0.168-0.164-16.836-16.681-27.005-42.895C104.28,332.33,106.959,299.522,124.944,267.556z"/>
<g>
</g>
<g>
</g>
<g>
</g>
<g>
</g>
<g>
</g>
<g>
</g>
<g>
</g>
<g>
</g>
<g>
</g>
<g>
</g>
<g>
</g>
<g>
</g>
<g>
</g>
<g>
</g>
<g>
</g>
</svg>
